ffmpeg started on 2016-11-28 at 23:38:18
Report written to "Output/x264/results/ffmpeg/old_town_cross_2160p50ultrafast13000k.log"
Command line:
Tools/ffmpeg/ffmpeg -benchmark -y -i Input/y4m/old_town_cross_2160p50.y4m -c:v libx264 -preset ultrafast -b:v 13000k -an Output/x264/encoded/old_town_cross_2160p50ultrafast13000k.mkv
ffmpeg version N-82227-gdb23fde Copyright (c) 2000-2016 the FFmpeg developers
  built with gcc 5.4.0 (Ubuntu 5.4.0-6ubuntu1~16.04.2) 20160609
  configuration: --prefix=/home/jaroslav/ffmpeg_build --pkg-config-flags=--static --extra-cflags=-I/home/jaroslav/ffmpeg_build/include --extra-ldflags=-L/home/jaroslav/ffmpeg_build/lib --bindir=/home/jaroslav/bin --enable-gpl --enable-libass --enable-libfdk-aac --enable-libfreetype --enable-libmp3lame --enable-libopus --enable-libtheora --enable-libvorbis --enable-libvpx --enable-libx264 --enable-libx265 --enable-nvenc --enable-libmfx --enable-libxvid --enable-libgsm --enable-libopencore-amrnb --enable-version3 --enable-nonfree
  libavutil      55. 35.100 / 55. 35.100
  libavcodec     57. 66.101 / 57. 66.101
  libavformat    57. 57.100 / 57. 57.100
  libavdevice    57.  2.100 / 57.  2.100
  libavfilter     6. 66.100 /  6. 66.100
  libswscale      4.  3.100 /  4.  3.100
  libswresample   2.  4.100 /  2.  4.100
  libpostproc    54.  2.100 / 54.  2.100
Input #0, yuv4mpegpipe, from 'Input/y4m/old_town_cross_2160p50.y4m':
  Duration: 00:00:10.00, start: 0.000000, bitrate: 4976642 kb/s
    Stream #0:0: Video: rawvideo (I420 / 0x30323449), yuv420p(progressive), 3840x2160, SAR 1:1 DAR 16:9, 50 fps, 50 tbr, 50 tbn, 50 tbc
[libx264 @ 0x306d120] using SAR=1/1
[libx264 @ 0x306d120] using cpu capabilities: MMX2 SSE2Fast SSSE3 SSE4.2 AVX FMA3 AVX2 LZCNT BMI2
[libx264 @ 0x306d120] profile Constrained Baseline, level 5.2
[libx264 @ 0x306d120] 264 - core 148 - H.264/MPEG-4 AVC codec - Copyleft 2003-2016 - http://www.videolan.org/x264.html - options: cabac=0 ref=1 deblock=0:0:0 analyse=0:0 me=dia subme=0 psy=1 psy_rd=1.00:0.00 mixed_ref=0 me_range=16 chroma_me=1 trellis=0 8x8dct=0 cqm=0 deadzone=21,11 fast_pskip=1 chroma_qp_offset=0 threads=6 lookahead_threads=1 sliced_threads=0 nr=0 decimate=1 interlaced=0 bluray_compat=0 constrained_intra=0 bframes=0 weightp=0 keyint=250 keyint_min=25 scenecut=0 intra_refresh=0 rc=abr mbtree=0 bitrate=13000 ratetol=1.0 qcomp=0.60 qpmin=0 qpmax=69 qpstep=4 ip_ratio=1.40 aq=0
Output #0, matroska, to 'Output/x264/encoded/old_town_cross_2160p50ultrafast13000k.mkv':
  Metadata:
    encoder         : Lavf57.57.100
    Stream #0:0: Video: h264 (libx264) (H264 / 0x34363248), yuv420p, 3840x2160 [SAR 1:1 DAR 16:9], q=-1--1, 13000 kb/s, 50 fps, 1k tbn, 50 tbc
    Metadata:
      encoder         : Lavc57.66.101 libx264
    Side data:
      cpb: bitrate max/min/avg: 0/0/13000000 buffer size: 0 vbv_delay: -1
Stream mapping:
  Stream #0:0 -> #0:0 (rawvideo (native) -> h264 (libx264))
Press [q] to stop, [?] for help
frame=   49 fps=0.0 q=33.0 size=       1kB time=00:00:00.82 bitrate=   7.1kbits/s speed=1.62x    frame=   96 fps= 94 q=33.0 size=       1kB time=00:00:01.76 bitrate=   3.3kbits/s speed=1.73x    frame=  142 fps= 93 q=33.0 size=       1kB time=00:00:02.68 bitrate=   2.2kbits/s speed=1.76x    frame=  188 fps= 93 q=33.0 size=    5137kB time=00:00:03.60 bitrate=11685.5kbits/s speed=1.78x    frame=  235 fps= 93 q=33.0 size=    5137kB time=00:00:04.54 bitrate=9266.6kbits/s speed= 1.8x    frame=  282 fps= 93 q=34.0 size=    7905kB time=00:00:05.48 bitrate=11815.4kbits/s speed=1.81x    frame=  329 fps= 93 q=33.0 size=    7905kB time=00:00:06.42 bitrate=10085.7kbits/s speed=1.81x    frame=  374 fps= 93 q=33.0 size=    7905kB time=00:00:07.32 bitrate=8845.8kbits/s speed=1.81x    frame=  419 fps= 92 q=34.0 size=   13056kB time=00:00:08.22 bitrate=13010.2kbits/s speed=1.81x    frame=  467 fps= 92 q=34.0 size=   13056kB time=00:00:09.18 bitrate=11649.8kbits/s speed=1.81x    frame=  500 fps= 91 q=-1.0 Lsize=   15900kB time=00:00:09.98 bitrate=13050.4kbits/s speed=1.82x    
video:15896kB audio:0kB subtitle:0kB other streams:0kB global headers:0kB muxing overhead: 0.029766%
bench: utime=19.628s
bench: maxrss=378024kB
[libx264 @ 0x306d120] frame I:2     Avg QP:35.00  size:297071
[libx264 @ 0x306d120] frame P:498   Avg QP:33.35  size: 31491
[libx264 @ 0x306d120] mb I  I16..4: 100.0%  0.0%  0.0%
[libx264 @ 0x306d120] mb P  I16..4:  2.7%  0.0%  0.0%  P16..4: 23.5%  0.0%  0.0%  0.0%  0.0%    skip:73.8%
[libx264 @ 0x306d120] final ratefactor: 27.70
[libx264 @ 0x306d120] coded y,uvDC,uvAC intra: 28.4% 29.2% 7.5% inter: 5.2% 4.3% 0.0%
[libx264 @ 0x306d120] i16 v,h,dc,p: 40% 37% 19%  5%
[libx264 @ 0x306d120] i8c dc,h,v,p: 66% 16% 17%  2%
[libx264 @ 0x306d120] kb/s:13021.23
